<svg xmlns="http://www.w3.org/2000/svg" viewBox="0 0 200 200" width="200" height="200">
  <defs>
    <!-- Base gradient -->
    <linearGradient id="base" x1="0" y1="0" x2="1" y2="1">
      <stop offset="0%" stop-color="rgb(155,162,169)"/>
      <stop offset="35%" stop-color="rgb(117,124,131)"/>
      <stop offset="70%" stop-color="#697077"/>
      <stop offset="100%" stop-color="rgb(75,82,89)"/>
    </linearGradient>
    <!-- Tab shadow gradient (horizontal) -->
    <linearGradient id="shadow" x1="0" y1="0" x2="0" y2="1">
      <stop offset="0%" stop-color="rgb(50,57,64)" stop-opacity="0.7"/>
      <stop offset="30%" stop-color="rgb(50,57,64)" stop-opacity="0"/>
      <stop offset="100%" stop-color="rgb(50,57,64)" stop-opacity="0"/>
    </linearGradient>
    <!-- Granule noise filter -->
    <filter id="grain" x="0%" y="0%" width="100%" height="100%">
      <feTurbulence type="fractalNoise" baseFrequency="0.85 0.75" numOctaves="4" seed="2408" result="noise"/>
      <feColorMatrix type="saturate" values="0" in="noise" result="grayNoise"/>
      <feBlend in="SourceGraphic" in2="grayNoise" mode="multiply" result="blended"/>
      <feComponentTransfer in="blended">
        <feFuncA type="linear" slope="1"/>
      </feComponentTransfer>
    </filter>
    <!-- Subtle gloss overlay -->
    <linearGradient id="gloss" x1="0" y1="0" x2="0" y2="1">
      <stop offset="0%" stop-color="white" stop-opacity="0.08"/>
      <stop offset="50%" stop-color="white" stop-opacity="0"/>
      <stop offset="100%" stop-color="black" stop-opacity="0.05"/>
    </linearGradient>
  </defs>

  <!-- Background base -->
  <rect width="200" height="200" fill="url(#base)"/>

  <!-- Shingle rows — row 1 (top) -->
  <!-- Row 1 tabs -->
  <rect x="0"   y="0"  width="66" height="62" fill="rgb(155,162,169)" opacity="0.5" rx="1"/>
  <rect x="68"  y="0"  width="66" height="62" fill="rgb(117,124,131)"     opacity="0.4" rx="1"/>
  <rect x="136" y="0"  width="64" height="62" fill="rgb(133,140,147)"   opacity="0.45" rx="1"/>
  <!-- Row 1 shadow stripe at bottom -->
  <rect x="0" y="55" width="200" height="9" fill="rgb(50,57,64)" opacity="0.55"/>

  <!-- Row 2 tabs (offset by ~patternOffset) -->
  <rect x="-25" y="64" width="66" height="62" fill="rgb(117,124,131)"     opacity="0.4" rx="1"/>
  <rect x="43" y="64" width="66" height="62" fill="rgb(155,162,169)" opacity="0.45" rx="1"/>
  <rect x="111" y="64" width="66" height="62" fill="#697077"    opacity="0.35" rx="1"/>
  <rect x="179" y="64" width="66" height="62" fill="rgb(133,140,147)"   opacity="0.4" rx="1"/>
  <!-- Row 2 shadow stripe -->
  <rect x="0" y="119" width="200" height="9" fill="rgb(50,57,64)" opacity="0.55"/>

  <!-- Row 3 tabs -->
  <rect x="0"   y="128" width="66" height="72" fill="rgb(133,140,147)"   opacity="0.45" rx="1"/>
  <rect x="68"  y="128" width="66" height="72" fill="#697077"    opacity="0.35" rx="1"/>
  <rect x="136" y="128" width="64" height="72" fill="rgb(155,162,169)" opacity="0.5" rx="1"/>
  <!-- Row 3 shadow stripe -->
  <rect x="0" y="188" width="200" height="12" fill="rgb(50,57,64)" opacity="0.6"/>

  <!-- Vertical tab dividers -->
  <line x1="66"  y1="0"   x2="66"  y2="55"  stroke="rgb(50,57,64)" stroke-width="1.5" opacity="0.6"/>
  <line x1="134" y1="0"   x2="134" y2="55"  stroke="rgb(50,57,64)" stroke-width="1.5" opacity="0.6"/>
  <line x1="41" y1="64" x2="41" y2="119" stroke="rgb(50,57,64)" stroke-width="1.5" opacity="0.6"/>
  <line x1="109" y1="64" x2="109" y2="119" stroke="rgb(50,57,64)" stroke-width="1.5" opacity="0.6"/>
  <line x1="177" y1="64" x2="177" y2="119" stroke="rgb(50,57,64)" stroke-width="1.5" opacity="0.6"/>
  <line x1="66"  y1="128" x2="66"  y2="200" stroke="rgb(50,57,64)" stroke-width="1.5" opacity="0.6"/>
  <line x1="134" y1="128" x2="134" y2="200" stroke="rgb(50,57,64)" stroke-width="1.5" opacity="0.6"/>

  <!-- Granule texture overlay -->
  <rect width="200" height="200" fill="#697077" opacity="0.3" filter="url(#grain)"/>

  <!-- Top shadow (laminate thickness illusion) -->
  <rect width="200" height="200" fill="url(#shadow)"/>

  <!-- Gloss finish -->
  <rect width="200" height="200" fill="url(#gloss)"/>
</svg>